<?xml version="1.0" standalone="no"?>
<!DOCTYPE svg PUBLIC "-//W3C//DTD SVG 20010904//EN"
 "http://www.w3.org/TR/2001/REC-SVG-20010904/DTD/svg10.dtd">
<svg version="1.0" xmlns="http://www.w3.org/2000/svg"
 width="512.000000pt" height="512.000000pt" viewBox="0 0 512.000000 512.000000"
 preserveAspectRatio="xMidYMid meet">
<metadata>
Created by potrace 1.14, written by Peter Selinger 2001-2017
</metadata>
<g transform="translate(0.000000,512.000000) scale(0.100000,-0.100000)"
fill="#000000" stroke="none">
<path d="M415 5110 c-183 -38 -330 -170 -391 -350 -18 -53 -19 -134 -19 -2200
0 -2066 1 -2147 19 -2200 52 -154 168 -274 322 -332 l59 -23 2155 0 2155 0 59
23 c154 58 270 178 322 332 18 53 19 134 19 2200 0 2066 -1 2147 -19 2200 -52
154 -168 274 -322 332 l-59 23 -2130 1 c-1172 1 -2148 -2 -2170 -6z m1016
-1844 c130 -28 217 -94 256 -195 15 -40 18 -91 21 -381 5 -488 5 -489 -212
-667 -226 -186 -214 -183 -697 -183 -349 0 -356 0 -375 21 -18 20 -19 47 -22
583 -2 438 0 570 10 598 9 25 44 62 118 125 58 49 114 94 125 101 31 18 690
16 776 -2z m1010 -5 c24 -19 24 -22 29 -257 l5 -238 35 30 c59 51 83 64 117
64 l33 0 0 91 c0 50 4 99 10 109 5 10 64 63 130 119 l121 101 162 0 c89 0 167
-4 173 -8 31 -21 34 -54 34 -429 0 -432 -1 -434 -82 -648 l-53 -140 -128 -107
-128 -108 -150 0 c-144 0 -151 1 -174 24 -13 13 -31 51 -40 85 -10 33 -22 61
-27 61 -5 0 -49 -33 -96 -73 -48 -41 -97 -79 -109 -85 -13 -8 -75 -12 -163
-12 -133 0 -142 1 -163 23 -23 23 -120 274 -138 356 -5 27 -8 209 -7 445 l3
400 80 69 c44 39 102 87 128 108 l49 39 163 0 c145 0 165 -2 186 -19z m2010 5
c142 -30 224 -99 260 -217 19 -62 20 -89 17 -420 l-3 -354 -33 -67 c-29 -60
-46 -78 -172 -183 -143 -119 -209 -158 -300 -175 -29 -5 -210 -10 -405 -10
-345 0 -352 0 -371 21 -18 20 -19 47 -22 583 -2 439 0 570 10 598 9 25 42 60
113 120 55 46 111 91 125 101 22 15 60 17 370 17 258 0 362 -4 411 -14z"/>
<path d="M690 3264 c-51 -11 -50 2 -50 -614 0 -546 1 -578 18 -593 17 -15 56
-17 358 -17 367 0 429 7 520 53 62 32 97 68 126 132 22 49 23 59 26 399 2 229
-1 367 -8 402 -15 72 -64 140 -125 175 -99 56 -139 61 -505 64 -184 2 -346 1
-360 -1z m716 -187 c34 -19 59 -43 75 -70 24 -42 24 -43 24 -357 0 -359 -2
-370 -79 -415 -62 -36 -139 -45 -378 -45 l-218 0 0 461 0 460 263 -3 262 -3
51 -28z"/>
<path d="M840 2649 l0 -440 253 3 c246 3 253 4 302 28 38 19 55 35 73 70 21
43 22 53 22 340 0 287 -1 297 -22 340 -18 35 -35 51 -77 73 l-55 27 -248 0
-248 0 0 -441z m445 266 l25 -24 0 -241 0 -241 -25 -24 c-23 -24 -30 -25 -140
-25 l-115 0 0 290 0 290 115 0 c110 0 117 -1 140 -25z"/>
<path d="M1040 2551 c0 -147 2 -171 15 -171 13 0 15 23 13 167 -2 122 -6 167
-15 171 -10 3 -13 -35 -13 -167z"/>
<path d="M2110 3261 c-50 -14 -51 -26 -47 -451 l3 -395 28 -79 c70 -199 97
-262 117 -278 18 -15 43 -18 160 -18 120 0 141 2 157 18 10 10 37 85 61 167
43 150 54 175 75 175 28 -1 40 -26 81 -171 31 -108 51 -159 66 -171 18 -15 42
-18 154 -18 73 0 141 3 150 6 21 8 35 37 86 175 71 193 69 173 69 615 0 361
-2 403 -17 415 -12 11 -54 14 -168 14 -114 0 -156 -3 -168 -14 -15 -12 -17
-48 -17 -332 0 -176 -3 -319 -8 -319 -4 0 -27 45 -52 101 -57 129 -69 139
-172 139 -96 0 -105 -7 -162 -136 -22 -49 -43 -93 -48 -98 -4 -6 -8 127 -8
295 0 167 -3 314 -6 326 -4 15 -18 26 -43 33 -40 11 -252 12 -291 1z m179
-906 c28 -122 42 -147 79 -143 24 3 37 23 123 191 53 104 103 195 111 203 20
20 77 28 110 15 23 -8 44 -44 119 -193 50 -101 98 -191 107 -200 21 -25 59
-22 76 5 7 12 23 66 35 120 19 88 21 130 21 422 0 205 4 326 10 330 7 4 10
-103 10 -315 0 -304 -1 -326 -25 -436 -28 -130 -36 -150 -66 -159 -53 -17 -65
-3 -163 194 -52 104 -102 196 -111 205 -21 21 -89 21 -110 0 -9 -9 -58 -101
-110 -204 -80 -159 -98 -189 -120 -194 -34 -9 -62 0 -74 23 -6 10 -21 68 -35
129 -25 108 -26 119 -24 439 l2 328 6 -330 c6 -294 9 -341 29 -430z"/>
<path d="M3710 3264 c-51 -11 -50 2 -50 -610 0 -531 1 -573 18 -594 l17 -21
370 3 c354 4 373 5 439 27 54 18 80 34 120 74 84 84 86 97 86 506 0 382 -4
411 -59 487 -35 47 -102 86 -187 110 -48 13 -122 17 -394 19 -184 2 -346 1
-360 -1z m701 -177 c59 -27 96 -71 109 -130 8 -34 11 -147 8 -337 -4 -339 -5
-345 -103 -395 l-59 -30 -258 -3 -258 -4 0 462 0 461 263 -3 c219 -3 268 -7
298 -21z"/>
<path d="M3860 2649 l0 -440 253 3 c246 3 253 4 301 28 93 47 91 38 94 388 3
331 -1 363 -51 410 -48 45 -93 52 -353 52 l-244 0 0 -441z m445 266 l25 -24 0
-241 0 -241 -25 -24 c-23 -24 -30 -25 -140 -25 l-115 0 0 290 0 290 115 0
c110 0 117 -1 140 -25z"/>
<path d="M4060 2551 c0 -147 2 -171 15 -171 13 0 15 23 13 167 -2 122 -6 167
-15 171 -10 3 -13 -35 -13 -167z"/>
</g>
</svg>
